<mxfile host="app.diagrams.net" modified="2024-04-02T07:34:23.362Z" agent="Mozilla/5.0 (Windows NT 10.0; Win64; x64) AppleWebKit/537.36 (KHTML, like Gecko) Chrome/123.0.0.0 Safari/537.36" etag="DKvgK_nvI9ZTnYvLTc-0" version="24.2.1" type="device">
  <diagram name="페이지-1" id="UIZ_fFcE490EXL_qKaht">
    <mxGraphModel dx="510" dy="682" grid="1" gridSize="10" guides="1" tooltips="1" connect="1" arrows="1" fold="1" page="1" pageScale="1" pageWidth="827" pageHeight="1169" math="0" shadow="0">
      <root>
        <mxCell id="0" />
        <mxCell id="1" parent="0" />
        <mxCell id="VCEPZP-8wVrw8R5r4wLB-1" value="비회원" style="shape=umlActor;verticalLabelPosition=bottom;verticalAlign=top;html=1;outlineConnect=0;" parent="1" vertex="1">
          <mxGeometry x="50" y="130" width="30" height="60" as="geometry" />
        </mxCell>
        <mxCell id="VCEPZP-8wVrw8R5r4wLB-2" value="actor&lt;div&gt;= 사용자&lt;/div&gt;" style="text;html=1;align=center;verticalAlign=middle;whiteSpace=wrap;rounded=0;" parent="1" vertex="1">
          <mxGeometry x="35" y="220" width="60" height="30" as="geometry" />
        </mxCell>
        <mxCell id="VCEPZP-8wVrw8R5r4wLB-5" value="회원" style="shape=umlActor;verticalLabelPosition=bottom;verticalAlign=top;html=1;outlineConnect=0;fillColor=#FF3399;" parent="1" vertex="1">
          <mxGeometry x="50" y="410" width="30" height="60" as="geometry" />
        </mxCell>
        <mxCell id="VCEPZP-8wVrw8R5r4wLB-6" value="" style="rounded=0;whiteSpace=wrap;html=1;" parent="1" vertex="1">
          <mxGeometry x="120" y="40" width="880" height="690" as="geometry" />
        </mxCell>
        <mxCell id="VCEPZP-8wVrw8R5r4wLB-7" value="관리자" style="shape=umlActor;verticalLabelPosition=bottom;verticalAlign=top;html=1;outlineConnect=0;fillColor=#33FFFF;" parent="1" vertex="1">
          <mxGeometry x="1080" y="130" width="30" height="60" as="geometry" />
        </mxCell>
        <mxCell id="VCEPZP-8wVrw8R5r4wLB-15" value="&lt;b&gt;&lt;font style=&quot;font-size: 15px;&quot; color=&quot;#990000&quot;&gt;지역소개&lt;/font&gt;&lt;/b&gt;" style="ellipse;whiteSpace=wrap;html=1;" parent="1" vertex="1">
          <mxGeometry x="350" y="135" width="120" height="50" as="geometry" />
        </mxCell>
        <mxCell id="VCEPZP-8wVrw8R5r4wLB-16" value="유래" style="ellipse;whiteSpace=wrap;html=1;" parent="1" vertex="1">
          <mxGeometry x="270" y="60" width="80" height="40" as="geometry" />
        </mxCell>
        <mxCell id="VCEPZP-8wVrw8R5r4wLB-17" value="시설안내" style="ellipse;whiteSpace=wrap;html=1;" parent="1" vertex="1">
          <mxGeometry x="370" y="60" width="80" height="40" as="geometry" />
        </mxCell>
        <mxCell id="VCEPZP-8wVrw8R5r4wLB-18" value="오시는 길" style="ellipse;whiteSpace=wrap;html=1;" parent="1" vertex="1">
          <mxGeometry x="470" y="60" width="80" height="40" as="geometry" />
        </mxCell>
        <mxCell id="VCEPZP-8wVrw8R5r4wLB-30" value="&amp;lt;&amp;lt;include&amp;gt;&amp;gt;" style="text;html=1;align=center;verticalAlign=middle;whiteSpace=wrap;rounded=0;" parent="1" vertex="1">
          <mxGeometry x="280" y="110" width="60" height="30" as="geometry" />
        </mxCell>
        <mxCell id="VCEPZP-8wVrw8R5r4wLB-31" value="" style="endArrow=classic;html=1;rounded=0;exitX=0.5;exitY=1;exitDx=0;exitDy=0;entryX=0.5;entryY=0;entryDx=0;entryDy=0;" parent="1" source="VCEPZP-8wVrw8R5r4wLB-16" target="VCEPZP-8wVrw8R5r4wLB-15" edge="1">
          <mxGeometry width="50" height="50" relative="1" as="geometry">
            <mxPoint x="220" y="210" as="sourcePoint" />
            <mxPoint x="270" y="160" as="targetPoint" />
          </mxGeometry>
        </mxCell>
        <mxCell id="VCEPZP-8wVrw8R5r4wLB-32" value="" style="endArrow=classic;html=1;rounded=0;exitX=0.5;exitY=1;exitDx=0;exitDy=0;entryX=0.5;entryY=0;entryDx=0;entryDy=0;" parent="1" source="VCEPZP-8wVrw8R5r4wLB-17" target="VCEPZP-8wVrw8R5r4wLB-15" edge="1">
          <mxGeometry width="50" height="50" relative="1" as="geometry">
            <mxPoint x="350" y="120" as="sourcePoint" />
            <mxPoint x="444" y="140" as="targetPoint" />
          </mxGeometry>
        </mxCell>
        <mxCell id="VCEPZP-8wVrw8R5r4wLB-33" value="" style="endArrow=classic;html=1;rounded=0;entryX=0.5;entryY=0;entryDx=0;entryDy=0;exitX=0.5;exitY=1;exitDx=0;exitDy=0;" parent="1" source="VCEPZP-8wVrw8R5r4wLB-18" target="VCEPZP-8wVrw8R5r4wLB-15" edge="1">
          <mxGeometry width="50" height="50" relative="1" as="geometry">
            <mxPoint x="460" y="160" as="sourcePoint" />
            <mxPoint x="510" y="110" as="targetPoint" />
          </mxGeometry>
        </mxCell>
        <mxCell id="VCEPZP-8wVrw8R5r4wLB-34" value="&amp;lt;&amp;lt;include&amp;gt;&amp;gt;" style="text;html=1;align=center;verticalAlign=middle;whiteSpace=wrap;rounded=0;" parent="1" vertex="1">
          <mxGeometry x="354" y="95" width="60" height="30" as="geometry" />
        </mxCell>
        <mxCell id="VCEPZP-8wVrw8R5r4wLB-35" value="&amp;lt;&amp;lt;include&amp;gt;&amp;gt;" style="text;html=1;align=center;verticalAlign=middle;whiteSpace=wrap;rounded=0;" parent="1" vertex="1">
          <mxGeometry x="460" y="110" width="60" height="30" as="geometry" />
        </mxCell>
        <mxCell id="VCEPZP-8wVrw8R5r4wLB-40" value="내용 수정" style="ellipse;whiteSpace=wrap;html=1;" parent="1" vertex="1">
          <mxGeometry x="700" y="140" width="80" height="40" as="geometry" />
        </mxCell>
        <mxCell id="VCEPZP-8wVrw8R5r4wLB-41" value="" style="endArrow=classic;html=1;rounded=0;entryX=0;entryY=0.5;entryDx=0;entryDy=0;" parent="1" target="VCEPZP-8wVrw8R5r4wLB-15" edge="1">
          <mxGeometry width="50" height="50" relative="1" as="geometry">
            <mxPoint x="80" y="160" as="sourcePoint" />
            <mxPoint x="150" y="100" as="targetPoint" />
          </mxGeometry>
        </mxCell>
        <mxCell id="VCEPZP-8wVrw8R5r4wLB-42" value="" style="endArrow=classic;html=1;rounded=0;entryX=0;entryY=0.5;entryDx=0;entryDy=0;exitX=1;exitY=0.5;exitDx=0;exitDy=0;" parent="1" source="VCEPZP-8wVrw8R5r4wLB-15" target="VCEPZP-8wVrw8R5r4wLB-40" edge="1">
          <mxGeometry width="50" height="50" relative="1" as="geometry">
            <mxPoint x="414" y="160" as="sourcePoint" />
            <mxPoint x="608" y="175" as="targetPoint" />
          </mxGeometry>
        </mxCell>
        <mxCell id="VCEPZP-8wVrw8R5r4wLB-43" value="&amp;lt;&amp;lt;extend&amp;gt;&amp;gt;" style="text;html=1;align=center;verticalAlign=middle;whiteSpace=wrap;rounded=0;" parent="1" vertex="1">
          <mxGeometry x="555" y="135" width="60" height="30" as="geometry" />
        </mxCell>
        <mxCell id="VCEPZP-8wVrw8R5r4wLB-44" value="" style="endArrow=classic;html=1;rounded=0;entryX=1;entryY=0.5;entryDx=0;entryDy=0;" parent="1" target="VCEPZP-8wVrw8R5r4wLB-40" edge="1">
          <mxGeometry width="50" height="50" relative="1" as="geometry">
            <mxPoint x="1070" y="160" as="sourcePoint" />
            <mxPoint x="850" y="190" as="targetPoint" />
          </mxGeometry>
        </mxCell>
        <mxCell id="VCEPZP-8wVrw8R5r4wLB-45" value="&lt;b&gt;&lt;font style=&quot;font-size: 15px;&quot; color=&quot;#990000&quot;&gt;이용안내&lt;/font&gt;&lt;/b&gt;" style="ellipse;whiteSpace=wrap;html=1;" parent="1" vertex="1">
          <mxGeometry x="346.5" y="320" width="120" height="50" as="geometry" />
        </mxCell>
        <mxCell id="VCEPZP-8wVrw8R5r4wLB-48" value="교통편" style="ellipse;whiteSpace=wrap;html=1;" parent="1" vertex="1">
          <mxGeometry x="230" y="250" width="80" height="40" as="geometry" />
        </mxCell>
        <mxCell id="VCEPZP-8wVrw8R5r4wLB-51" value="주요시설" style="ellipse;whiteSpace=wrap;html=1;" parent="1" vertex="1">
          <mxGeometry x="324" y="250" width="80" height="40" as="geometry" />
        </mxCell>
        <mxCell id="VCEPZP-8wVrw8R5r4wLB-52" value="맛집" style="ellipse;whiteSpace=wrap;html=1;" parent="1" vertex="1">
          <mxGeometry x="415" y="250" width="80" height="40" as="geometry" />
        </mxCell>
        <mxCell id="VCEPZP-8wVrw8R5r4wLB-53" value="관광" style="ellipse;whiteSpace=wrap;html=1;" parent="1" vertex="1">
          <mxGeometry x="511" y="250" width="80" height="40" as="geometry" />
        </mxCell>
        <mxCell id="VCEPZP-8wVrw8R5r4wLB-55" value="" style="endArrow=classic;html=1;rounded=0;entryX=0.5;entryY=0;entryDx=0;entryDy=0;" parent="1" target="VCEPZP-8wVrw8R5r4wLB-45" edge="1">
          <mxGeometry width="50" height="50" relative="1" as="geometry">
            <mxPoint x="266.5" y="290" as="sourcePoint" />
            <mxPoint x="350.5" y="320" as="targetPoint" />
          </mxGeometry>
        </mxCell>
        <mxCell id="VCEPZP-8wVrw8R5r4wLB-56" value="" style="endArrow=classic;html=1;rounded=0;entryX=0.5;entryY=0;entryDx=0;entryDy=0;exitX=0.5;exitY=1;exitDx=0;exitDy=0;" parent="1" source="VCEPZP-8wVrw8R5r4wLB-51" target="VCEPZP-8wVrw8R5r4wLB-45" edge="1">
          <mxGeometry width="50" height="50" relative="1" as="geometry">
            <mxPoint x="356.5" y="300" as="sourcePoint" />
            <mxPoint x="350.5" y="320" as="targetPoint" />
          </mxGeometry>
        </mxCell>
        <mxCell id="VCEPZP-8wVrw8R5r4wLB-57" value="" style="endArrow=classic;html=1;rounded=0;entryX=0.5;entryY=0;entryDx=0;entryDy=0;exitX=0.5;exitY=1;exitDx=0;exitDy=0;" parent="1" source="VCEPZP-8wVrw8R5r4wLB-52" target="VCEPZP-8wVrw8R5r4wLB-45" edge="1">
          <mxGeometry width="50" height="50" relative="1" as="geometry">
            <mxPoint x="446.5" y="290" as="sourcePoint" />
            <mxPoint x="350.5" y="320" as="targetPoint" />
          </mxGeometry>
        </mxCell>
        <mxCell id="VCEPZP-8wVrw8R5r4wLB-58" value="" style="endArrow=classic;html=1;rounded=0;exitX=0.5;exitY=1;exitDx=0;exitDy=0;" parent="1" source="VCEPZP-8wVrw8R5r4wLB-53" edge="1">
          <mxGeometry width="50" height="50" relative="1" as="geometry">
            <mxPoint x="536.5" y="290" as="sourcePoint" />
            <mxPoint x="406.5" y="320" as="targetPoint" />
          </mxGeometry>
        </mxCell>
        <mxCell id="VCEPZP-8wVrw8R5r4wLB-61" value="내용 수정" style="ellipse;whiteSpace=wrap;html=1;" parent="1" vertex="1">
          <mxGeometry x="696.5" y="320" width="80" height="40" as="geometry" />
        </mxCell>
        <mxCell id="VCEPZP-8wVrw8R5r4wLB-62" value="" style="endArrow=classic;html=1;rounded=0;entryX=0;entryY=0.5;entryDx=0;entryDy=0;exitX=1;exitY=0.5;exitDx=0;exitDy=0;" parent="1" target="VCEPZP-8wVrw8R5r4wLB-61" edge="1">
          <mxGeometry width="50" height="50" relative="1" as="geometry">
            <mxPoint x="466.5" y="340" as="sourcePoint" />
            <mxPoint x="604.5" y="355" as="targetPoint" />
          </mxGeometry>
        </mxCell>
        <mxCell id="VCEPZP-8wVrw8R5r4wLB-63" value="&amp;lt;&amp;lt;extend&amp;gt;&amp;gt;" style="text;html=1;align=center;verticalAlign=middle;whiteSpace=wrap;rounded=0;" parent="1" vertex="1">
          <mxGeometry x="556" y="320" width="60" height="30" as="geometry" />
        </mxCell>
        <mxCell id="VCEPZP-8wVrw8R5r4wLB-64" value="" style="endArrow=classic;html=1;rounded=0;entryX=1;entryY=0.5;entryDx=0;entryDy=0;" parent="1" target="VCEPZP-8wVrw8R5r4wLB-61" edge="1">
          <mxGeometry width="50" height="50" relative="1" as="geometry">
            <mxPoint x="1070" y="160" as="sourcePoint" />
            <mxPoint x="780" y="174.5" as="targetPoint" />
          </mxGeometry>
        </mxCell>
        <mxCell id="VCEPZP-8wVrw8R5r4wLB-65" value="&amp;lt;&amp;lt;include&amp;gt;&amp;gt;" style="text;html=1;align=center;verticalAlign=middle;whiteSpace=wrap;rounded=0;" parent="1" vertex="1">
          <mxGeometry x="466.5" y="300" width="60" height="30" as="geometry" />
        </mxCell>
        <mxCell id="VCEPZP-8wVrw8R5r4wLB-68" value="&amp;lt;&amp;lt;include&amp;gt;&amp;gt;" style="text;html=1;align=center;verticalAlign=middle;whiteSpace=wrap;rounded=0;" parent="1" vertex="1">
          <mxGeometry x="276.5" y="300" width="60" height="30" as="geometry" />
        </mxCell>
        <mxCell id="VCEPZP-8wVrw8R5r4wLB-71" value="&amp;lt;&amp;lt;include&amp;gt;&amp;gt;" style="text;html=1;align=center;verticalAlign=middle;whiteSpace=wrap;rounded=0;" parent="1" vertex="1">
          <mxGeometry x="316.5" y="280" width="60" height="30" as="geometry" />
        </mxCell>
        <mxCell id="VCEPZP-8wVrw8R5r4wLB-72" value="&amp;lt;&amp;lt;include&amp;gt;&amp;gt;" style="text;html=1;align=center;verticalAlign=middle;whiteSpace=wrap;rounded=0;" parent="1" vertex="1">
          <mxGeometry x="446.5" y="280" width="60" height="30" as="geometry" />
        </mxCell>
        <mxCell id="VCEPZP-8wVrw8R5r4wLB-75" value="&lt;b&gt;&lt;font style=&quot;font-size: 15px;&quot; color=&quot;#990000&quot;&gt;공지사항&lt;/font&gt;&lt;/b&gt;" style="ellipse;whiteSpace=wrap;html=1;" parent="1" vertex="1">
          <mxGeometry x="355" y="540" width="120" height="50" as="geometry" />
        </mxCell>
        <mxCell id="VCEPZP-8wVrw8R5r4wLB-76" value="목록 보기" style="ellipse;whiteSpace=wrap;html=1;" parent="1" vertex="1">
          <mxGeometry x="274" y="440" width="80" height="40" as="geometry" />
        </mxCell>
        <mxCell id="VCEPZP-8wVrw8R5r4wLB-77" value="상세 보기" style="ellipse;whiteSpace=wrap;html=1;" parent="1" vertex="1">
          <mxGeometry x="366.5" y="440" width="80" height="40" as="geometry" />
        </mxCell>
        <mxCell id="VCEPZP-8wVrw8R5r4wLB-78" value="" style="endArrow=classic;html=1;rounded=0;entryX=0;entryY=0.5;entryDx=0;entryDy=0;" parent="1" target="VCEPZP-8wVrw8R5r4wLB-76" edge="1">
          <mxGeometry width="50" height="50" relative="1" as="geometry">
            <mxPoint x="80" y="160" as="sourcePoint" />
            <mxPoint x="130" y="110" as="targetPoint" />
          </mxGeometry>
        </mxCell>
        <mxCell id="VCEPZP-8wVrw8R5r4wLB-79" value="&lt;b&gt;로그인&lt;/b&gt;" style="ellipse;whiteSpace=wrap;html=1;" parent="1" vertex="1">
          <mxGeometry x="150" y="650" width="80" height="40" as="geometry" />
        </mxCell>
        <mxCell id="VCEPZP-8wVrw8R5r4wLB-81" value="&lt;font size=&quot;1&quot; style=&quot;&quot; color=&quot;#990000&quot;&gt;&lt;b style=&quot;font-size: 15px;&quot;&gt;회원&lt;/b&gt;&lt;/font&gt;" style="ellipse;whiteSpace=wrap;html=1;" parent="1" vertex="1">
          <mxGeometry x="259" y="620" width="95" height="40" as="geometry" />
        </mxCell>
        <mxCell id="VCEPZP-8wVrw8R5r4wLB-82" value="&lt;b&gt;회원가입&lt;/b&gt;" style="ellipse;whiteSpace=wrap;html=1;" parent="1" vertex="1">
          <mxGeometry x="150" y="460" width="80" height="40" as="geometry" />
        </mxCell>
        <mxCell id="VCEPZP-8wVrw8R5r4wLB-83" value="" style="endArrow=classic;html=1;rounded=0;entryX=0;entryY=0.5;entryDx=0;entryDy=0;" parent="1" target="VCEPZP-8wVrw8R5r4wLB-82" edge="1">
          <mxGeometry width="50" height="50" relative="1" as="geometry">
            <mxPoint x="80" y="160" as="sourcePoint" />
            <mxPoint x="229" y="380" as="targetPoint" />
          </mxGeometry>
        </mxCell>
        <mxCell id="VCEPZP-8wVrw8R5r4wLB-84" value="" style="endArrow=classic;html=1;rounded=0;entryX=0;entryY=0.5;entryDx=0;entryDy=0;" parent="1" target="VCEPZP-8wVrw8R5r4wLB-79" edge="1">
          <mxGeometry width="50" height="50" relative="1" as="geometry">
            <mxPoint x="80" y="440" as="sourcePoint" />
            <mxPoint x="130" y="390" as="targetPoint" />
          </mxGeometry>
        </mxCell>
        <mxCell id="VCEPZP-8wVrw8R5r4wLB-85" value="" style="endArrow=classic;html=1;rounded=0;entryX=0;entryY=0.5;entryDx=0;entryDy=0;exitX=1;exitY=0.5;exitDx=0;exitDy=0;" parent="1" source="VCEPZP-8wVrw8R5r4wLB-79" target="VCEPZP-8wVrw8R5r4wLB-81" edge="1">
          <mxGeometry width="50" height="50" relative="1" as="geometry">
            <mxPoint x="251" y="630" as="sourcePoint" />
            <mxPoint x="301" y="580" as="targetPoint" />
          </mxGeometry>
        </mxCell>
        <mxCell id="VCEPZP-8wVrw8R5r4wLB-86" value="&lt;b&gt;&lt;font color=&quot;#007fff&quot;&gt;글 수정&lt;/font&gt;&lt;/b&gt;" style="ellipse;whiteSpace=wrap;html=1;" parent="1" vertex="1">
          <mxGeometry x="455" y="440" width="80" height="40" as="geometry" />
        </mxCell>
        <mxCell id="VCEPZP-8wVrw8R5r4wLB-89" value="&lt;b&gt;&lt;font color=&quot;#007fff&quot;&gt;글 등록&lt;/font&gt;&lt;/b&gt;" style="ellipse;whiteSpace=wrap;html=1;" parent="1" vertex="1">
          <mxGeometry x="546" y="440" width="80" height="40" as="geometry" />
        </mxCell>
        <mxCell id="VCEPZP-8wVrw8R5r4wLB-90" value="&lt;font color=&quot;#007fff&quot;&gt;글 삭제&lt;/font&gt;" style="ellipse;whiteSpace=wrap;html=1;fontStyle=1" parent="1" vertex="1">
          <mxGeometry x="640" y="440" width="80" height="40" as="geometry" />
        </mxCell>
        <mxCell id="VCEPZP-8wVrw8R5r4wLB-92" value="" style="endArrow=classic;html=1;rounded=0;exitX=0.5;exitY=0;exitDx=0;exitDy=0;entryX=0;entryY=0.5;entryDx=0;entryDy=0;" parent="1" source="VCEPZP-8wVrw8R5r4wLB-86" target="VCEPZP-8wVrw8R5r4wLB-105" edge="1">
          <mxGeometry width="50" height="50" relative="1" as="geometry">
            <mxPoint x="750" y="450" as="sourcePoint" />
            <mxPoint x="800" y="400" as="targetPoint" />
          </mxGeometry>
        </mxCell>
        <mxCell id="VCEPZP-8wVrw8R5r4wLB-94" value="" style="endArrow=classic;html=1;rounded=0;entryX=0.5;entryY=0;entryDx=0;entryDy=0;exitX=0.5;exitY=1;exitDx=0;exitDy=0;" parent="1" source="VCEPZP-8wVrw8R5r4wLB-76" target="VCEPZP-8wVrw8R5r4wLB-75" edge="1">
          <mxGeometry width="50" height="50" relative="1" as="geometry">
            <mxPoint x="271" y="510" as="sourcePoint" />
            <mxPoint x="411" y="540" as="targetPoint" />
          </mxGeometry>
        </mxCell>
        <mxCell id="VCEPZP-8wVrw8R5r4wLB-95" value="" style="endArrow=classic;html=1;rounded=0;entryX=0.5;entryY=0;entryDx=0;entryDy=0;exitX=0.5;exitY=1;exitDx=0;exitDy=0;" parent="1" source="VCEPZP-8wVrw8R5r4wLB-86" target="VCEPZP-8wVrw8R5r4wLB-75" edge="1">
          <mxGeometry width="50" height="50" relative="1" as="geometry">
            <mxPoint x="369" y="510" as="sourcePoint" />
            <mxPoint x="411" y="540" as="targetPoint" />
          </mxGeometry>
        </mxCell>
        <mxCell id="VCEPZP-8wVrw8R5r4wLB-96" value="" style="endArrow=classic;html=1;rounded=0;entryX=0.5;entryY=0;entryDx=0;entryDy=0;exitX=0.5;exitY=1;exitDx=0;exitDy=0;" parent="1" source="VCEPZP-8wVrw8R5r4wLB-89" target="VCEPZP-8wVrw8R5r4wLB-75" edge="1">
          <mxGeometry width="50" height="50" relative="1" as="geometry">
            <mxPoint x="460" y="510" as="sourcePoint" />
            <mxPoint x="411" y="540" as="targetPoint" />
          </mxGeometry>
        </mxCell>
        <mxCell id="VCEPZP-8wVrw8R5r4wLB-97" value="" style="endArrow=classic;html=1;rounded=0;exitX=0.5;exitY=1;exitDx=0;exitDy=0;entryX=0.5;entryY=0;entryDx=0;entryDy=0;" parent="1" source="VCEPZP-8wVrw8R5r4wLB-90" target="VCEPZP-8wVrw8R5r4wLB-75" edge="1">
          <mxGeometry width="50" height="50" relative="1" as="geometry">
            <mxPoint x="556" y="510" as="sourcePoint" />
            <mxPoint x="411" y="540" as="targetPoint" />
          </mxGeometry>
        </mxCell>
        <mxCell id="VCEPZP-8wVrw8R5r4wLB-98" value="&amp;lt;&amp;lt;include&amp;gt;&amp;gt;" style="text;html=1;align=center;verticalAlign=middle;whiteSpace=wrap;rounded=0;" parent="1" vertex="1">
          <mxGeometry x="490" y="470" width="60" height="30" as="geometry" />
        </mxCell>
        <mxCell id="VCEPZP-8wVrw8R5r4wLB-99" value="&amp;lt;&amp;lt;include&amp;gt;&amp;gt;" style="text;html=1;align=center;verticalAlign=middle;whiteSpace=wrap;rounded=0;" parent="1" vertex="1">
          <mxGeometry x="590" y="470" width="60" height="30" as="geometry" />
        </mxCell>
        <mxCell id="VCEPZP-8wVrw8R5r4wLB-100" value="&amp;lt;&amp;lt;include&amp;gt;&amp;gt;" style="text;html=1;align=center;verticalAlign=middle;whiteSpace=wrap;rounded=0;" parent="1" vertex="1">
          <mxGeometry x="550" y="500" width="60" height="30" as="geometry" />
        </mxCell>
        <mxCell id="VCEPZP-8wVrw8R5r4wLB-101" value="&amp;lt;&amp;lt;include&amp;gt;&amp;gt;" style="text;html=1;align=center;verticalAlign=middle;whiteSpace=wrap;rounded=0;" parent="1" vertex="1">
          <mxGeometry x="324" y="510" width="60" height="30" as="geometry" />
        </mxCell>
        <mxCell id="VCEPZP-8wVrw8R5r4wLB-105" value="&lt;b&gt;&lt;font style=&quot;font-size: 15px;&quot;&gt;글 관리&lt;/font&gt;&lt;/b&gt;" style="ellipse;whiteSpace=wrap;html=1;fillColor=#66B2FF;" parent="1" vertex="1">
          <mxGeometry x="700" y="370" width="80" height="40" as="geometry" />
        </mxCell>
        <mxCell id="VCEPZP-8wVrw8R5r4wLB-106" value="" style="endArrow=classic;html=1;rounded=0;entryX=1;entryY=0.5;entryDx=0;entryDy=0;" parent="1" target="VCEPZP-8wVrw8R5r4wLB-105" edge="1">
          <mxGeometry width="50" height="50" relative="1" as="geometry">
            <mxPoint x="1080" y="570" as="sourcePoint" />
            <mxPoint x="700" y="400" as="targetPoint" />
          </mxGeometry>
        </mxCell>
        <mxCell id="VCEPZP-8wVrw8R5r4wLB-125" value="" style="endArrow=classic;html=1;rounded=0;entryX=0;entryY=0.5;entryDx=0;entryDy=0;exitX=0.5;exitY=0;exitDx=0;exitDy=0;" parent="1" source="VCEPZP-8wVrw8R5r4wLB-89" target="VCEPZP-8wVrw8R5r4wLB-105" edge="1">
          <mxGeometry width="50" height="50" relative="1" as="geometry">
            <mxPoint x="461" y="470" as="sourcePoint" />
            <mxPoint x="791.5" y="410" as="targetPoint" />
          </mxGeometry>
        </mxCell>
        <mxCell id="VCEPZP-8wVrw8R5r4wLB-126" value="" style="endArrow=classic;html=1;rounded=0;exitX=0.5;exitY=0;exitDx=0;exitDy=0;entryX=0;entryY=0.5;entryDx=0;entryDy=0;" parent="1" source="VCEPZP-8wVrw8R5r4wLB-90" target="VCEPZP-8wVrw8R5r4wLB-105" edge="1">
          <mxGeometry width="50" height="50" relative="1" as="geometry">
            <mxPoint x="550" y="470" as="sourcePoint" />
            <mxPoint x="789.5" y="410" as="targetPoint" />
          </mxGeometry>
        </mxCell>
        <mxCell id="VCEPZP-8wVrw8R5r4wLB-129" value="" style="endArrow=classic;html=1;rounded=0;entryX=0;entryY=0.5;entryDx=0;entryDy=0;exitX=1;exitY=0.625;exitDx=0;exitDy=0;exitPerimeter=0;" parent="1" source="VCEPZP-8wVrw8R5r4wLB-82" target="VCEPZP-8wVrw8R5r4wLB-81" edge="1">
          <mxGeometry width="50" height="50" relative="1" as="geometry">
            <mxPoint x="230" y="550" as="sourcePoint" />
            <mxPoint x="280" y="500" as="targetPoint" />
          </mxGeometry>
        </mxCell>
        <mxCell id="VCEPZP-8wVrw8R5r4wLB-132" value="" style="endArrow=classic;html=1;rounded=0;entryX=0.5;entryY=0;entryDx=0;entryDy=0;exitX=0.5;exitY=1;exitDx=0;exitDy=0;" parent="1" source="VCEPZP-8wVrw8R5r4wLB-77" target="VCEPZP-8wVrw8R5r4wLB-75" edge="1">
          <mxGeometry width="50" height="50" relative="1" as="geometry">
            <mxPoint x="410" y="660" as="sourcePoint" />
            <mxPoint x="460" y="610" as="targetPoint" />
          </mxGeometry>
        </mxCell>
        <mxCell id="VCEPZP-8wVrw8R5r4wLB-133" value="&lt;b&gt;&lt;font style=&quot;font-size: 15px;&quot;&gt;회원관리&lt;/font&gt;&lt;/b&gt;" style="ellipse;whiteSpace=wrap;html=1;fillColor=#3399FF;" parent="1" vertex="1">
          <mxGeometry x="535" y="620" width="80" height="40" as="geometry" />
        </mxCell>
        <mxCell id="VCEPZP-8wVrw8R5r4wLB-136" value="탈퇴" style="ellipse;whiteSpace=wrap;html=1;" parent="1" vertex="1">
          <mxGeometry x="266.5" y="550" width="80" height="40" as="geometry" />
        </mxCell>
        <mxCell id="VCEPZP-8wVrw8R5r4wLB-138" value="" style="endArrow=classic;html=1;rounded=0;exitX=0.5;exitY=0;exitDx=0;exitDy=0;entryX=0.5;entryY=1;entryDx=0;entryDy=0;" parent="1" source="VCEPZP-8wVrw8R5r4wLB-81" target="VCEPZP-8wVrw8R5r4wLB-136" edge="1">
          <mxGeometry width="50" height="50" relative="1" as="geometry">
            <mxPoint x="430" y="680" as="sourcePoint" />
            <mxPoint x="480" y="630" as="targetPoint" />
          </mxGeometry>
        </mxCell>
        <mxCell id="VCEPZP-8wVrw8R5r4wLB-139" value="" style="endArrow=classic;html=1;rounded=0;exitX=0.5;exitY=0;exitDx=0;exitDy=0;" parent="1" source="VCEPZP-8wVrw8R5r4wLB-136" edge="1">
          <mxGeometry width="50" height="50" relative="1" as="geometry">
            <mxPoint x="300" y="550" as="sourcePoint" />
            <mxPoint x="80" y="160" as="targetPoint" />
          </mxGeometry>
        </mxCell>
        <mxCell id="VCEPZP-8wVrw8R5r4wLB-142" value="정보수정" style="ellipse;whiteSpace=wrap;html=1;" parent="1" vertex="1">
          <mxGeometry x="150" y="560" width="80" height="40" as="geometry" />
        </mxCell>
        <mxCell id="VCEPZP-8wVrw8R5r4wLB-143" value="" style="endArrow=classic;html=1;rounded=0;entryX=0;entryY=0.5;entryDx=0;entryDy=0;" parent="1" target="VCEPZP-8wVrw8R5r4wLB-142" edge="1">
          <mxGeometry width="50" height="50" relative="1" as="geometry">
            <mxPoint x="80" y="440" as="sourcePoint" />
            <mxPoint x="-10" y="560" as="targetPoint" />
          </mxGeometry>
        </mxCell>
        <mxCell id="VCEPZP-8wVrw8R5r4wLB-144" value="" style="endArrow=classic;html=1;rounded=0;entryX=1;entryY=0.5;entryDx=0;entryDy=0;exitX=0;exitY=0.5;exitDx=0;exitDy=0;" parent="1" source="VCEPZP-8wVrw8R5r4wLB-81" target="VCEPZP-8wVrw8R5r4wLB-142" edge="1">
          <mxGeometry width="50" height="50" relative="1" as="geometry">
            <mxPoint x="210" y="740" as="sourcePoint" />
            <mxPoint x="260" y="690" as="targetPoint" />
          </mxGeometry>
        </mxCell>
        <mxCell id="VCEPZP-8wVrw8R5r4wLB-147" value="목록 보기" style="ellipse;whiteSpace=wrap;html=1;" parent="1" vertex="1">
          <mxGeometry x="395" y="610" width="80" height="40" as="geometry" />
        </mxCell>
        <mxCell id="VCEPZP-8wVrw8R5r4wLB-148" value="상세 정보" style="ellipse;whiteSpace=wrap;html=1;" parent="1" vertex="1">
          <mxGeometry x="395" y="660" width="80" height="40" as="geometry" />
        </mxCell>
        <mxCell id="VCEPZP-8wVrw8R5r4wLB-149" value="" style="endArrow=classic;html=1;rounded=0;" parent="1" edge="1">
          <mxGeometry width="50" height="50" relative="1" as="geometry">
            <mxPoint x="540" y="460" as="sourcePoint" />
            <mxPoint x="590" y="410" as="targetPoint" />
          </mxGeometry>
        </mxCell>
        <mxCell id="VCEPZP-8wVrw8R5r4wLB-150" value="" style="endArrow=classic;html=1;rounded=0;entryX=1;entryY=0.5;entryDx=0;entryDy=0;exitX=0;exitY=0.5;exitDx=0;exitDy=0;" parent="1" source="VCEPZP-8wVrw8R5r4wLB-147" target="VCEPZP-8wVrw8R5r4wLB-81" edge="1">
          <mxGeometry width="50" height="50" relative="1" as="geometry">
            <mxPoint x="350" y="750" as="sourcePoint" />
            <mxPoint x="400" y="700" as="targetPoint" />
          </mxGeometry>
        </mxCell>
        <mxCell id="VCEPZP-8wVrw8R5r4wLB-151" value="" style="endArrow=classic;html=1;rounded=0;entryX=1;entryY=0.5;entryDx=0;entryDy=0;exitX=0;exitY=0.5;exitDx=0;exitDy=0;" parent="1" source="VCEPZP-8wVrw8R5r4wLB-148" target="VCEPZP-8wVrw8R5r4wLB-81" edge="1">
          <mxGeometry width="50" height="50" relative="1" as="geometry">
            <mxPoint x="391" y="670" as="sourcePoint" />
            <mxPoint x="350" y="660" as="targetPoint" />
          </mxGeometry>
        </mxCell>
        <mxCell id="VCEPZP-8wVrw8R5r4wLB-152" value="" style="endArrow=classic;html=1;rounded=0;exitX=1;exitY=0.5;exitDx=0;exitDy=0;entryX=0;entryY=0.5;entryDx=0;entryDy=0;" parent="1" source="VCEPZP-8wVrw8R5r4wLB-148" target="VCEPZP-8wVrw8R5r4wLB-133" edge="1">
          <mxGeometry width="50" height="50" relative="1" as="geometry">
            <mxPoint x="580" y="780" as="sourcePoint" />
            <mxPoint x="630" y="730" as="targetPoint" />
          </mxGeometry>
        </mxCell>
        <mxCell id="VCEPZP-8wVrw8R5r4wLB-153" value="" style="endArrow=classic;html=1;rounded=0;exitX=1;exitY=0.5;exitDx=0;exitDy=0;entryX=0;entryY=0.5;entryDx=0;entryDy=0;" parent="1" source="VCEPZP-8wVrw8R5r4wLB-147" target="VCEPZP-8wVrw8R5r4wLB-133" edge="1">
          <mxGeometry width="50" height="50" relative="1" as="geometry">
            <mxPoint x="540" y="610" as="sourcePoint" />
            <mxPoint x="590" y="560" as="targetPoint" />
          </mxGeometry>
        </mxCell>
        <mxCell id="VCEPZP-8wVrw8R5r4wLB-156" value="회원/글 관리자" style="shape=umlActor;verticalLabelPosition=bottom;verticalAlign=top;html=1;outlineConnect=0;fillColor=#33FFFF;" parent="1" vertex="1">
          <mxGeometry x="1090" y="540" width="30" height="60" as="geometry" />
        </mxCell>
        <mxCell id="VCEPZP-8wVrw8R5r4wLB-159" value="" style="endArrow=classic;html=1;rounded=0;entryX=1;entryY=0.5;entryDx=0;entryDy=0;" parent="1" target="VCEPZP-8wVrw8R5r4wLB-133" edge="1">
          <mxGeometry width="50" height="50" relative="1" as="geometry">
            <mxPoint x="1080" y="570" as="sourcePoint" />
            <mxPoint x="780" y="430" as="targetPoint" />
          </mxGeometry>
        </mxCell>
      </root>
    </mxGraphModel>
  </diagram>
</mxfile>
